<mxfile host="app.diagrams.net" modified="2024-01-20T10:31:44.841Z" agent="Mozilla/5.0 (Windows NT 10.0; Win64; x64) AppleWebKit/537.36 (KHTML, like Gecko) Chrome/120.0.0.0 Safari/537.36" version="22.1.19" etag="jhAHZtlI04JIOvGlpzXL" type="github">
  <diagram name="Page-1" id="n2vkUwxn3Y0r80lo0tna">
    <mxGraphModel>
      <root>
        <mxCell id="0" />
        <mxCell id="1" parent="0" />
      </root>
    </mxGraphModel>
  </diagram>
</mxfile>
